<svg width="30" height="31" viewBox="0 0 30 31" fill="none" xmlns="http://www.w3.org/2000/svg">
<g clip-path="url(#clip0_11_2987)">
<path d="M10.4508 1.23671C7.45332 2.27656 4.86831 4.25023 3.07545 6.86781C1.28259 9.4854 0.376388 12.6089 0.489945 15.7796C0.603502 18.9503 1.73083 22.001 3.70635 24.4836C5.68187 26.9662 8.40145 28.7499 11.4656 29.5727C13.9498 30.2137 16.5525 30.2418 19.05 29.6547C21.3125 29.1465 23.4042 28.0594 25.1203 26.5C26.9064 24.8274 28.2029 22.6996 28.8703 20.3453C29.5955 17.7851 29.7246 15.0928 29.2477 12.475H15.2977V18.2617H23.3766C23.2151 19.1847 22.8691 20.0655 22.3593 20.8516C21.8494 21.6377 21.1862 22.3129 20.4094 22.8367C19.423 23.4895 18.3109 23.9286 17.1445 24.1258C15.9749 24.3433 14.7751 24.3433 13.6055 24.1258C12.4199 23.8809 11.2984 23.3916 10.3125 22.6891C8.72848 21.5678 7.53909 19.9748 6.91407 18.1375C6.27865 16.2657 6.27865 14.2366 6.91407 12.3648C7.35897 11.0528 8.09446 9.85828 9.06563 8.87031C10.177 7.71893 11.5841 6.89593 13.1324 6.49158C14.6807 6.08723 16.3105 6.11718 17.843 6.57812C19.0402 6.94544 20.1349 7.58752 21.0398 8.45312C21.9508 7.54687 22.8602 6.63828 23.768 5.72734C24.2367 5.2375 24.7477 4.77109 25.2094 4.26953C23.8278 2.98402 22.2062 1.98368 20.4375 1.32578C17.2165 0.156222 13.6921 0.124791 10.4508 1.23671Z" fill="white"/>
<path d="M10.4508 1.23672C13.6919 0.124045 17.2162 0.154649 20.4375 1.32344C22.2065 1.98581 23.8274 2.99097 25.207 4.28126C24.7383 4.78282 24.2438 5.25157 23.7656 5.73907C22.8563 6.64688 21.9477 7.55157 21.0398 8.45313C20.1349 7.58753 19.0402 6.94545 17.843 6.57813C16.311 6.11557 14.6813 6.0839 13.1326 6.48659C11.5838 6.88928 10.1759 7.71077 9.06329 8.86094C8.09212 9.84892 7.35663 11.0435 6.91172 12.3555L2.05313 8.59375C3.79221 5.14507 6.80332 2.50709 10.4508 1.23672Z" fill="#E33629"/>
<path d="M0.764068 12.3203C1.02502 11.026 1.45858 9.77264 2.05313 8.59375L6.91172 12.3648C6.27631 14.2366 6.27631 16.2657 6.91172 18.1375C5.29297 19.3875 3.67344 20.6438 2.05313 21.9063C0.565202 18.9445 0.11141 15.5699 0.764068 12.3203Z" fill="#F8BD00"/>
<path d="M15.2976 12.4727H29.2476C29.7246 15.0905 29.5955 17.7828 28.8703 20.343C28.2029 22.6972 26.9064 24.825 25.1203 26.4977C23.5523 25.2742 21.9773 24.0602 20.4094 22.8367C21.1867 22.3124 21.8502 21.6365 22.3601 20.8495C22.8699 20.0626 23.2157 19.1808 23.3765 18.257H15.2976C15.2953 16.3305 15.2976 14.4016 15.2976 12.4727Z" fill="#587DBD"/>
<path d="M2.05078 21.9062C3.67109 20.6562 5.29062 19.4 6.90937 18.1375C7.53564 19.9755 8.72673 21.5685 10.3125 22.6891C11.3014 23.3884 12.4254 23.8737 13.6125 24.1141C14.7822 24.3316 15.9819 24.3316 17.1516 24.1141C18.3179 23.9169 19.43 23.4778 20.4164 22.825C21.9844 24.0484 23.5594 25.2625 25.1273 26.4859C23.4115 28.0462 21.3197 29.1341 19.057 29.643C16.5596 30.2301 13.9569 30.2019 11.4727 29.5609C9.50789 29.0363 7.67268 28.1115 6.08203 26.8445C4.39858 25.5077 3.02352 23.8232 2.05078 21.9062Z" fill="#319F43"/>
</g>
<defs>
<clipPath id="clip0_11_2987">
<rect width="30" height="30" fill="white" transform="translate(0 0.25)"/>
</clipPath>
</defs>
</svg>
